# xmcd CD database file
#
# Track frame offsets:
#	150
#	27472
#	44540
#	50895
#	65887
#	78807
#	97562
#	118060
#	134087
#	143632
#	152460
#
# Disc length: 2395 seconds
#
# Revision: 0
# Processed by: cddbd v1.5.1PL0 Copyright (c) Steve Scherf et al.
# Submitted via: CDex 1.51
#
DISCID=9709590b
DTITLE=ソウル・フラワー・ユニオン - 極東戦線異状なし!?
DYEAR=2004
DGENRE=Rock
TTITLE0=極東戦線異状なし!?
TTITLE1=インターナショナル
TTITLE2=ディスコ・アームド・ピース（インスト）
TTITLE3=秋の夜長
TTITLE4=続・うたは自由を目指す！
TTITLE5=アテルイとモレの逆襲（インスト）
TTITLE6=デイズ
TTITLE7=エンプティ・ノーション
TTITLE8=ヴェトナミーズ・ゴスペル（インスト）
TTITLE9=アンチェインのテーマ（インスト）
TTITLE10=極東戦線異状なし!?（インスト）
EXTD=YEAR: 2004
EXTT0=
EXTT1=
EXTT2=
EXTT3=
EXTT4=
EXTT5=
EXTT6=
EXTT7=
EXTT8=
EXTT9=
EXTT10=
PLAYORDER=
